<svg xmlns="http://www.w3.org/2000/svg" version="1.1" xmlns:xlink="http://www.w3.org/1999/xlink" width="512" height="512" x="0" y="0" viewBox="0 0 32 32" style="enable-background:new 0 0 512 512" xml:space="preserve"><g><path d="m22.954 16 7.603-7.603c1.974-1.974 1.872-5.29-.205-7.148-1.943-1.738-4.97-1.588-6.891.336L16 9.046 8.54 1.585C6.614-.339 3.59-.489 1.647 1.248-.427 3.106-.525 6.43 1.443 8.397L9.046 16l-7.603 7.603c-1.925 1.925-1.842 5.276.159 7.106 1.91 1.75 5.042 1.602 6.976-.333L16 22.954l7.422 7.422c1.907 1.909 5.148 2.12 7.124.192 1.924-1.878 1.899-5.077.01-6.965z" fill="#ffffff" opacity="1" data-original="#000000"></path></g></svg>